<svg width="368" height="98" viewBox="0 0 368 98" fill="none" xmlns="http://www.w3.org/2000/svg">
<path d="M228.158 89.5712C262.896 90.0826 289.461 89.7416 315.855 85.8212C325.391 84.4576 334.756 81.9008 343.952 79.344C348.038 78.1508 351.955 75.7645 355.361 73.2077C361.15 68.9463 361.491 64.3441 356.382 59.401C353.147 56.1623 349.23 53.2646 345.314 50.7078C334.926 44.2306 323.517 39.7988 312.108 35.7079C283.841 25.6512 254.552 19.174 224.923 14.5717C191.206 9.45813 157.49 7.24224 123.433 8.26496C98.4012 8.94677 73.3693 11.1627 48.6781 15.0831C34.7147 17.299 20.7514 19.6853 6.78807 21.9012C6.61778 21.9012 6.4475 21.9012 6.27721 22.0717C2.70124 22.583 0.487536 21.5603 0.146967 19.3444C-0.534172 17.1285 1.16867 15.7649 4.91494 14.9126C28.7548 10.3104 52.7649 5.70816 76.9453 3.32181C102.999 0.765012 129.052 -0.598615 155.276 0.253652C199.721 1.61728 243.484 7.7536 286.566 19.3444C303.594 23.9467 320.282 29.4012 336.289 37.0716C343.611 40.6511 350.593 45.0829 357.404 49.5147C360.299 51.3897 362.853 54.4578 364.897 57.3555C369.494 63.8327 368.983 71.1622 363.364 76.7872C360.129 80.0258 356.042 82.7531 351.785 84.7985C341.908 89.7417 331.18 91.7871 320.452 93.4916C285.714 98.4348 250.976 98.7757 216.068 97.0711C201.934 96.3893 187.801 95.7075 173.667 94.6848C155.447 93.3212 137.056 91.7871 118.835 89.7416C101.637 87.8667 84.6081 85.4803 67.5797 82.4122C58.0437 80.7076 48.5078 77.8099 39.3124 74.9122C34.885 73.5486 30.6279 70.9918 26.8816 68.2645C18.708 61.9578 18.1971 53.2646 25.1788 45.5942C29.2656 40.992 34.5445 38.2647 40.1638 35.8784C52.5946 30.5943 65.7065 27.5262 78.9887 25.1398C97.2092 21.7308 115.6 20.5376 134.331 21.5603C138.929 21.7308 140.972 23.0944 140.802 25.6512C140.632 27.8671 138.588 28.8898 134.331 29.0603C123.263 29.4012 112.194 29.4012 101.126 30.2534C82.2241 31.7875 63.6631 35.367 45.9535 42.1852C41.8667 43.7193 37.9501 45.7647 34.3742 48.151C26.2005 53.9465 26.5411 59.5714 35.2256 64.1736C39.3124 66.3895 43.7398 68.0941 48.3375 69.4577C62.4711 73.8895 76.9453 76.4463 91.5898 78.1508C119.346 81.219 147.273 84.2871 175.029 86.503C195.293 88.378 215.898 88.8894 228.158 89.5712Z" fill="white"/>
</svg>
