<svg width="36" height="36" viewBox="0 0 36 36" fill="none" xmlns="http://www.w3.org/2000/svg">
<path d="M5.26007 15.19C7.12503 13.2674 9.51409 11.9355 12.1301 11.36C14.0506 10.8773 16.0201 10.6156 18.0001 10.58V5.28001C18.0314 4.38166 18.4172 3.53227 19.0731 2.91761C19.729 2.30294 20.6016 1.97302 21.5001 2.00001C22.3986 1.97302 23.2712 2.30294 23.9271 2.91761C24.5829 3.53227 24.9687 4.38166 25.0001 5.28001V15.28L26.6001 13.7C27.3049 13.0086 28.2528 12.6213 29.2401 12.6213C30.2274 12.6213 31.1753 13.0086 31.8801 13.7C32.2332 14.0412 32.5143 14.4497 32.7066 14.9015C32.899 15.3532 32.9988 15.839 33.0001 16.33C33.0184 17.282 32.6588 18.2025 32.0001 18.89L27.3401 24.41C27.1152 25.8204 26.6304 27.1767 25.9101 28.41C25.3838 29.3584 24.7085 30.216 23.9101 30.95V32.87C23.9132 33.1438 23.8113 33.4084 23.6253 33.6093C23.4392 33.8102 23.1833 33.9321 22.9101 33.95H9.00006C8.72685 33.9321 8.47089 33.8102 8.28487 33.6093C8.09885 33.4084 7.99692 33.1438 8.00006 32.87V30.17C6.03506 27.8303 4.97106 24.8653 5.00006 21.81V15.81C5.01258 15.5795 5.10444 15.3605 5.26007 15.19V15.19ZM7.00006 21.86C6.93617 24.5187 7.86284 27.1063 9.60007 29.12C9.8208 29.2998 9.964 29.5576 10.0001 29.84V32H21.8601V30.52C21.8598 30.3562 21.8998 30.1948 21.9765 30.0501C22.0533 29.9054 22.1644 29.7817 22.3001 29.69C23.0495 29.0756 23.6683 28.3174 24.1201 27.46C24.7571 26.3813 25.1655 25.1832 25.3201 23.94C25.3308 23.7236 25.4115 23.5166 25.5501 23.35L30.4701 17.53C30.6303 17.3719 30.7575 17.1835 30.8444 16.9758C30.9312 16.768 30.976 16.5451 30.976 16.32C30.976 16.0949 30.9312 15.872 30.8444 15.6643C30.7575 15.4565 30.6303 15.2681 30.4701 15.11C30.1408 14.7857 29.6972 14.604 29.2351 14.604C28.7729 14.604 28.3293 14.7857 28.0001 15.11L25.0001 18.11V21.25L23.0001 20.25V5.28001C22.9645 4.91393 22.7883 4.57593 22.5085 4.33719C22.2287 4.09844 21.8672 3.97756 21.5001 4.00001C21.1329 3.97756 20.7714 4.09844 20.4917 4.33719C20.2119 4.57593 20.0356 4.91393 20.0001 5.28001V17.08L18.0001 17.51V12.59C17.1608 12.6066 16.3231 12.6666 15.4901 12.77V18L13.8901 18.35V13C13.4801 13.08 13.0601 13.17 12.6301 13.28C12.1116 13.4157 11.6009 13.5792 11.1001 13.77V18.92L9.50006 19.27V14.5C8.59107 14.9588 7.74979 15.541 7.00006 16.23V21.86Z" fill="white"/>
</svg>
