<svg width="509" height="438" viewBox="0 0 509 438" fill="none" xmlns="http://www.w3.org/2000/svg">
<g clip-path="url(#clip0_0_1)">
<path d="M283.95 177.466C327.926 176.252 376.765 171.885 424.756 158.779C439.768 154.654 454.356 149.8 468.097 141.792C474.229 138.152 480.36 134.027 485.858 129.173C489.874 125.533 493.256 120.68 495.794 115.583C501.925 103.45 500.233 91.0731 490.932 82.0941C485.435 76.7551 479.304 72.387 472.75 68.7468C454.145 58.069 434.271 51.0314 414.186 45.4498C397.483 40.8389 380.358 38.8976 363.233 37.6841C361.119 37.4414 359.004 37.6841 357.314 36.7135C355.834 35.9855 354.142 33.8014 354.142 32.3453C354.353 30.4039 356.045 28.4624 357.525 27.4918C359.004 26.5211 361.119 27.0065 362.811 27.0065C390.717 26.7638 417.568 33.0734 443.573 43.5085C456.258 48.6046 468.732 54.6715 480.994 61.2238C487.337 64.6213 493.468 69.7174 498.543 75.2991C509.536 87.1902 511.863 102.964 505.52 118.738C502.348 126.989 497.274 133.542 491.354 139.123C480.571 149.073 468.309 155.383 455.624 160.479C430.888 170.429 405.306 176.252 379.301 180.379C348.434 185.475 317.566 188.144 286.276 188.871C249.066 189.6 211.856 187.415 175.492 177.466C160.904 173.583 146.95 167.759 134.053 159.023C125.596 153.198 117.985 146.646 112.065 137.425C102.551 122.621 101.494 107.09 108.683 90.5877C112.7 81.366 118.408 73.843 124.962 67.048C142.299 49.09 162.595 36.9562 184.16 27.2491C212.279 14.63 241.667 7.83497 271.476 3.70945C309.744 -1.62943 348.011 -0.901396 386.278 3.95214C419.26 8.07764 451.819 15.1152 483.109 28.7051C487.125 30.4039 490.932 32.588 494.737 34.772C497.486 36.2281 499.177 38.4122 498.12 42.0524C497.274 44.7218 494.525 45.6925 491.143 43.7512C471.481 33.5587 450.55 28.4624 429.619 23.3663C405.094 17.5421 380.147 14.3873 355.199 12.4458C310.801 9.29102 266.826 13.1738 223.696 25.3076C200.439 31.3745 178.029 40.8389 157.098 54.6715C146.316 61.7092 136.167 69.9601 127.499 80.3953C124.328 84.2781 121.368 88.6463 118.831 93.2571C111.22 107.575 112.488 121.893 122.636 133.784C127.711 139.85 133.842 144.948 140.184 149.558C154.138 159.508 169.783 164.604 185.851 168.244C216.296 175.282 247.375 177.708 283.95 177.466Z" fill="white"/>
</g>
<g clip-path="url(#clip1_0_1)">
<path d="M89.7495 172.344C88.0603 172.556 87.4269 172.344 86.7935 172.556C48.1532 195.826 21.9707 228.828 12.0466 273.253C9.51285 284.465 9.93513 296.101 12.8912 307.524C19.0146 332.064 39.496 348.988 64.6228 350.469C77.7141 351.315 90.383 349.834 101.785 342.641C102.63 336.507 103.263 330.372 104.53 324.66C106.641 315.352 111.498 307.736 120.155 303.082C126.49 299.485 132.824 299.485 136.202 302.87C140.637 307.313 140.636 313.236 137.892 318.102C134.091 324.871 129.446 331.218 124.589 337.141C121.422 340.949 117.199 344.122 113.398 347.296C116.988 371.201 139.581 381.355 166.608 371.412C167.452 368.027 168.297 364.431 169.353 361.046C173.576 348.565 181.388 339.045 194.057 334.603C198.914 332.91 204.192 332.276 208.415 336.718C211.583 340.103 211.583 346.026 208.204 351.95C202.714 361.258 194.48 367.816 185.611 373.528C182.444 375.432 179.277 377.336 176.11 379.028C180.333 416.049 213.483 442.281 246 427.473C245.789 430.223 246 432.55 245.155 433.819C244.1 435.3 241.777 436.146 239.877 436.569C221.929 439.954 205.248 437.839 191.524 424.723C181.177 414.991 174.209 403.145 169.564 389.605C168.93 387.702 168.297 385.798 167.452 383.894C167.452 383.682 167.03 383.471 166.186 382.836C164.285 383.047 161.963 383.047 159.64 383.471C131.346 387.913 116.566 380.297 103.474 353.854C100.94 354.7 97.9844 355.546 95.2394 356.604C78.9809 362.104 62.7224 362.527 46.2528 357.027C19.4368 348.142 2.12262 325.083 0.222275 295.889C-0.833481 280.023 1.91147 264.791 7.61249 249.983C21.5483 214.231 44.3525 186.095 78.5587 167.69C80.2478 166.632 82.1482 165.786 83.8374 164.728C84.0485 164.517 84.2597 164.094 84.8931 162.824C77.7141 161.132 70.9572 161.767 64.2005 162.19C57.6548 162.401 50.8981 163.036 43.719 163.459C44.3525 157.959 47.3086 155.843 50.8981 154.574C55.1211 153.305 59.3441 151.612 63.567 151.401C74.9691 150.977 86.5823 150.766 98.1955 151.401C107.275 152.035 109.809 156.901 105.797 164.305C97.1398 179.96 88.2715 195.614 79.4032 211.269C77.9252 213.808 76.0248 215.923 73.7022 218.885C69.6904 214.231 71.3796 210.846 72.8576 207.673C78.7698 196.249 84.0485 184.825 89.7495 172.344ZM202.081 343.065C187.512 344.968 178.432 354.277 177.799 367.393C187.512 361.046 196.802 355.334 202.081 343.065ZM130.712 310.274C118.255 313.236 112.342 321.698 113.609 334.603C121.633 327.833 128.601 321.486 130.712 310.274Z" fill="white"/>
</g>
<defs>
<clipPath id="clip0_0_1">
<rect width="405" height="189" fill="white" transform="translate(104)"/>
</clipPath>
<clipPath id="clip1_0_1">
<rect width="246" height="287" fill="white" transform="translate(246 438) rotate(180)"/>
</clipPath>
</defs>
</svg>

