<svg width="400" height="41" viewBox="0 0 518 41" fill="none" xmlns="http://www.w3.org/2000/svg">
<path d="M496.315 6.29913C494.379 6.49001 492.636 6.49001 490.7 6.68089C488.183 6.87178 485.666 7.25354 482.955 7.44443C478.696 7.82619 474.436 8.58972 470.37 9.54414C465.917 10.6894 461.657 12.2165 457.591 14.3162C456.817 14.698 456.042 15.2706 455.074 15.4615C454.106 15.8433 453.332 16.225 452.364 16.6068C451.008 17.1794 449.847 17.5612 448.491 17.943C446.942 18.3247 445.393 18.7065 443.844 18.8974C442.489 19.0883 441.134 19.0883 439.778 19.0883C438.423 19.0883 437.261 18.8974 435.906 18.8974C434.164 18.7065 432.421 18.3247 430.678 17.7521C428.936 17.1794 427.193 16.6068 425.451 15.8433C422.546 14.5071 419.642 12.98 416.738 11.453C415.383 10.6894 414.221 9.9259 412.866 8.97149C411.317 8.01707 409.768 7.06266 408.219 6.10825C407.057 5.34472 405.702 4.77207 404.346 4.19942C403.572 3.81765 402.604 3.62677 401.636 3.43589C400.668 3.24501 399.893 3.24501 398.925 3.05412C398.344 3.05412 397.763 3.05412 397.376 3.24501C396.602 3.43589 395.827 3.62677 395.053 3.81765C393.891 4.19942 392.729 4.77207 391.568 5.34472C389.244 6.49001 387.114 7.63531 384.791 8.7806C381.887 10.3077 379.176 11.6438 376.078 12.98C374.336 13.7436 372.399 14.3162 370.657 14.8888C368.14 15.6524 365.816 16.0341 363.299 16.4159C360.976 16.7977 358.459 16.7977 356.136 16.9886C353.425 16.9886 350.714 16.7977 348.004 16.4159C344.519 15.8433 341.227 15.2706 337.742 14.5071C334.644 13.7436 331.546 12.7891 328.642 11.6438C325.738 10.3077 322.833 8.97149 319.929 7.44443C316.638 5.72648 313.346 4.00854 309.861 2.86324C308.506 2.29059 307.15 2.09971 305.601 1.71794C304.052 1.33618 302.31 1.33618 300.567 1.33618C298.825 1.33618 297.276 1.71794 295.533 2.09971C293.791 2.48148 292.242 3.24501 290.693 4.00854C287.014 5.91736 283.723 8.39884 280.431 10.8803C278.495 12.4074 276.559 13.9344 274.623 15.4615C273.074 16.6068 271.331 17.943 269.588 19.0883C267.846 20.2336 265.91 21.188 263.974 22.1424C263.005 22.5242 262.231 22.9059 261.263 23.0968C260.101 23.4786 258.746 23.6695 257.584 23.8603C257.003 23.8603 256.616 23.8603 256.035 23.8603C255.648 23.8603 255.261 23.8603 254.874 23.8603C253.905 23.6695 252.937 23.2877 251.969 22.9059C248.484 21.188 245.193 19.0883 242.095 16.7977C240.546 15.6524 239.19 14.5071 237.835 13.1709C236.867 12.2165 235.899 11.453 234.931 10.4985C232.414 8.20796 230.09 5.5356 227.38 3.43589C226.218 2.67236 225.056 1.90883 223.701 1.1453C222.927 0.763531 222.152 0.572648 221.378 0.381765C221.184 0.381765 220.797 0.190883 220.603 0.190883C220.022 0.190883 219.441 0 219.054 0C218.861 0 218.473 0 218.28 0H218.086C217.699 0 217.118 0 216.731 0.190883C215.763 0.381765 214.988 0.572648 214.02 0.763531C212.278 1.33618 210.535 1.90883 208.793 2.67236C207.437 3.24501 206.082 3.81765 204.727 4.58118C203.758 4.96295 202.79 5.5356 201.822 5.91736C200.273 6.68089 198.918 7.44442 197.369 8.20796C196.595 8.58972 195.82 8.97149 195.239 9.35325C193.884 10.1168 192.529 11.0712 191.367 11.8347C190.399 12.4074 189.431 12.98 188.463 13.7436C185.946 15.2706 183.622 16.9886 181.105 18.5156C175.877 21.9515 170.456 25.3874 164.648 27.8689C163.292 28.4415 162.131 28.8233 160.775 29.3959C159.226 29.9686 157.484 30.3503 155.741 30.5412C154.967 30.5412 154.386 30.7321 153.611 30.7321C152.45 30.7321 151.482 30.7321 150.32 30.5412C148.771 30.3503 147.222 29.9686 145.867 29.3959C144.318 28.6324 142.769 27.678 141.414 26.7236C139.09 25.0056 137.154 22.9059 135.218 20.8062C134.25 19.8518 133.282 18.7065 132.314 17.7521C131.152 16.6068 129.796 15.4615 128.635 14.3162C127.473 13.3618 126.505 12.5983 125.15 12.0256C123.988 12.4074 123.213 12.0256 122.439 11.8347C121.665 11.6438 120.89 11.453 120.116 11.453C119.535 11.453 119.147 11.453 118.567 11.6438C117.792 11.8347 117.211 12.0256 116.437 12.4074C115.856 12.7891 115.082 13.1709 114.501 13.5527C113.92 14.1253 113.339 14.698 112.952 15.2706C111.984 16.4159 111.016 17.5612 110.241 18.7065C109.467 19.6609 108.692 20.4244 108.111 21.3789C107.337 22.3333 106.369 23.4786 105.594 24.433C103.852 26.5327 101.916 28.2506 99.7857 29.9686C98.2368 31.1139 96.4942 32.0683 94.7517 33.0227C93.0091 33.5954 91.4602 33.9771 89.7176 34.3589C87.2006 34.5498 84.8772 34.5498 82.3601 34.3589C78.4878 33.7862 74.809 32.6409 71.1303 31.1139C67.8388 29.5868 64.7409 28.0598 61.643 26.1509C60.0941 25.1965 58.5452 24.2421 56.9962 23.0968C55.4473 22.1424 53.8983 20.9971 52.3494 20.0427C50.8004 18.8974 49.2515 17.943 47.7026 16.9886C46.1536 16.0341 44.4111 15.0797 42.6685 14.3162C39.377 12.7891 35.8919 11.8347 32.4068 12.0256C31.6323 12.0256 30.6642 12.2165 29.8897 12.2165C28.9216 12.4074 28.1472 12.5983 27.3727 12.7891C26.5982 12.98 25.8238 13.3618 25.2429 13.5527C24.4684 13.9344 23.694 14.3162 22.9195 14.5071C18.8535 15.8433 15.562 17.7521 12.4641 19.8518C9.75349 21.7606 7.04284 23.8603 4.71943 26.3418C3.55773 27.4871 2.58964 28.6324 1.62155 29.7777C1.23431 30.3503 0.847077 30.923 0.65346 31.6865C0.65346 31.8774 0.459842 32.2592 0.459842 32.4501C0.266224 33.0227 0.266224 33.5954 0.0726066 34.168C-0.121011 34.9315 0.0726066 35.6951 0.65346 36.2677C1.23431 36.6495 2.00878 36.8404 2.78325 36.6495C3.36411 36.4586 3.75134 36.2677 4.3322 36.2677C5.10667 36.0768 5.68752 35.6951 6.46199 35.3133C7.43008 34.7407 7.81732 33.4045 7.23646 32.4501C6.84923 31.8774 6.46199 31.6865 5.88114 31.4956C7.81732 29.3959 9.94711 27.4871 12.0769 25.5783C15.7556 22.9059 19.628 20.8062 23.694 18.8974C24.6621 18.5156 25.6301 18.1339 26.5982 17.7521C27.7599 17.5612 29.1153 17.1794 30.277 16.9886C31.4387 16.7977 32.4068 16.7977 33.5685 16.9886C34.3429 17.1794 34.9238 17.1794 35.6983 17.3703C36.86 17.7521 37.8281 18.1339 38.7962 18.5156C40.7323 19.47 42.6685 20.4244 44.4111 21.5697C46.5409 22.9059 48.477 24.433 50.6068 25.96C52.543 27.2962 54.6728 28.8233 56.8026 30.1595C58.9324 31.4956 61.0622 32.8318 63.192 33.9771C67.4516 36.2677 71.9048 38.1765 76.358 39.5127C81.0048 40.8489 86.0389 41.4215 91.0729 40.658C93.3963 40.2762 95.5261 39.7036 97.6559 38.9401C99.7857 37.9857 101.722 37.0312 103.464 35.6951C105.401 34.3589 107.143 32.6409 108.886 30.923C109.854 29.9686 110.628 29.0142 111.403 28.0598C112.564 26.5327 113.726 25.1965 114.888 23.6695C116.243 21.9515 117.599 20.0427 119.341 18.3247C119.535 18.3247 119.535 18.1339 119.728 18.1339C119.922 18.1339 120.116 17.943 120.309 17.943H120.503C120.89 17.943 121.084 18.1339 121.471 18.1339C122.245 18.5156 123.02 18.8974 123.794 19.47C125.924 20.9971 127.667 22.9059 129.409 24.8148C131.733 27.1053 134.056 29.5868 136.573 31.6865C137.735 32.6409 138.897 33.4045 140.058 34.168C141.414 35.1224 142.962 35.6951 144.511 36.2677C145.867 36.8404 147.416 37.0312 148.965 37.413C150.707 37.6039 152.643 37.7948 154.386 37.6039C155.935 37.6039 157.484 37.2221 158.839 37.0312C160.582 36.6495 162.324 36.0768 164.067 35.5042C167.358 34.3589 170.456 32.8318 173.36 31.3048C177.814 29.0142 181.88 26.1509 185.946 23.4786C187.882 22.1424 189.818 20.8062 191.948 19.47C194.271 17.943 196.595 16.6068 198.918 15.0797C199.112 14.8888 199.499 14.698 199.692 14.698C200.467 14.3162 201.241 13.9344 202.016 13.3618C203.178 12.7891 204.339 12.0256 205.695 11.453C205.888 11.2621 206.275 11.2621 206.469 11.0712C207.244 10.6894 208.212 10.3077 208.986 9.9259C210.341 9.35325 211.89 8.58972 213.246 8.01707C214.601 7.44442 216.15 7.06266 217.699 6.68089C218.086 6.68089 218.28 6.68089 218.667 6.68089C218.861 6.68089 219.248 6.68089 219.441 6.68089C220.022 6.87178 220.603 7.06266 221.378 7.25354C222.346 7.82619 223.314 8.39884 224.282 9.16237C227.186 11.6438 229.703 14.3162 232.414 16.7977C234.156 18.3247 235.899 19.8518 237.642 21.3789C239.384 22.715 241.127 23.8603 242.869 25.1965C244.805 26.5327 246.742 27.4871 248.678 28.6324C250.42 29.5868 252.55 30.1595 254.486 30.5412C255.454 30.7321 256.229 30.7321 257.197 30.5412C258.359 30.5412 259.52 30.3503 260.682 29.9686C262.618 29.5868 264.554 29.0142 266.297 28.2506C268.427 27.2962 270.363 26.3418 272.299 25.1965C275.01 23.4786 277.333 21.5697 279.85 19.6609C281.206 18.5156 282.754 17.3703 284.11 16.225C285.272 15.2706 286.433 14.5071 287.595 13.5527C290.112 11.6438 292.629 10.1168 295.533 8.7806C296.889 8.20796 298.244 7.82619 299.793 7.63531C300.567 7.63531 301.148 7.44443 301.923 7.44443C302.503 7.44443 303.084 7.44443 303.859 7.63531C306.182 8.01707 308.312 8.58972 310.442 9.35325C312.184 10.1168 314.121 11.0712 315.863 11.8347C317.025 12.4074 317.993 12.98 319.155 13.5527C320.123 14.1253 321.284 14.698 322.446 15.2706C324.576 16.225 326.706 17.1794 328.836 18.1339C331.159 19.0883 333.482 19.6609 335.806 20.2336C340.84 21.5697 345.874 22.3333 350.908 22.9059C353.425 23.2877 356.136 23.2877 358.653 23.2877C361.17 23.2877 363.687 22.9059 366.204 22.5242C370.657 21.9515 375.11 20.6153 379.37 18.8974C382.08 17.7521 384.597 16.4159 387.308 15.0797C390.406 13.5527 393.504 11.8347 396.795 10.3077C397.376 10.1168 398.151 9.9259 398.731 9.73502C399.119 9.73502 399.506 9.73502 399.893 9.73502C400.861 9.9259 401.636 10.1168 402.604 10.4985C405.508 11.8347 408.025 13.7436 410.736 15.4615C413.446 17.3703 416.351 18.8974 419.255 20.4244C422.159 21.9515 425.257 23.0968 428.355 24.2421C431.84 25.3874 435.519 25.96 439.198 26.1509C442.489 26.3418 445.781 25.96 448.878 25.1965C451.589 24.6239 454.3 23.4786 456.817 22.3333C457.978 21.7606 458.947 21.3789 460.108 20.8062C460.883 20.4244 461.464 20.0427 462.238 19.6609C463.206 19.0883 464.368 18.7065 465.336 18.1339C470.564 16.0341 475.985 14.8888 481.6 14.1253C484.504 13.7436 487.602 13.5527 490.7 13.1709C493.217 12.98 495.928 12.7891 498.445 12.5983C503.672 12.2165 509.094 11.8347 514.321 12.0256C516.451 12.0256 518 10.3077 518 8.39884C518 6.49001 516.257 4.77207 514.321 4.77207C510.255 4.77207 506.189 5.15383 502.317 5.34472C500.187 5.91736 498.251 6.10825 496.315 6.29913ZM398.151 9.9259C398.344 9.9259 398.344 9.9259 398.538 9.9259C398.344 9.9259 398.151 9.9259 398.151 9.9259Z" fill="white"/>
</svg>
